<svg width="64" height="64" viewBox="0 0 64 64" fill="none" xmlns="http://www.w3.org/2000/svg">
<path d="M24.743 1H7.11879C3.74404 1 1 3.74404 1 7.11879V24.743C1 28.1177 3.74404 30.8618 7.11879 30.8618H24.743C28.1177 30.8618 30.8618 28.1177 30.8618 24.743V7.11879C30.8618 3.74404 28.1177 1 24.743 1Z" stroke="#133E87" stroke-width="2"/>
<path d="M56.743 1H39.1188C35.744 1 33 3.74404 33 7.11879V24.743C33 28.1177 35.744 30.8618 39.1188 30.8618H56.743C60.1177 30.8618 62.8618 28.1177 62.8618 24.743V7.11879C62.8618 3.74404 60.1177 1 56.743 1Z" stroke="#133E87" stroke-width="2"/>
<path d="M24.743 33H7.11879C3.74404 33 1 35.744 1 39.1188V56.743C1 60.1177 3.74404 62.8618 7.11879 62.8618H24.743C28.1177 62.8618 30.8618 60.1177 30.8618 56.743V39.1188C30.8618 35.744 28.1177 33 24.743 33Z" stroke="#133E87" stroke-width="2"/>
<path d="M56.743 33H39.1188C35.744 33 33 35.744 33 39.1188V56.743C33 60.1177 35.744 62.8618 39.1188 62.8618H56.743C60.1177 62.8618 62.8618 60.1177 62.8618 56.743V39.1188C62.8618 35.744 60.1177 33 56.743 33Z" stroke="#133E87" stroke-width="2"/>
</svg>
