<svg width="51" height="46" viewBox="0 0 51 46" fill="none" xmlns="http://www.w3.org/2000/svg">
<path d="M16.2253 38.9469C15.9558 38.9469 15.6863 38.8437 15.4811 38.6385L0 23.1574L15.4811 7.67636C15.8926 7.26478 16.5579 7.26478 16.9695 7.67636C17.3811 8.08794 17.3811 8.7532 16.9695 9.16478L2.97684 23.1574L16.9695 37.15C17.3811 37.5616 17.3811 38.2269 16.9695 38.6385C16.7642 38.8437 16.4947 38.9469 16.2253 38.9469Z" fill="#133E87"/>
<path d="M34.12 38.9469C33.8506 38.9469 33.5811 38.8437 33.3758 38.6385C32.9642 38.2269 32.9642 37.5616 33.3758 37.15L47.3685 23.1574L33.3758 9.16478C32.9642 8.7532 32.9642 8.08794 33.3758 7.67636C33.7874 7.26478 34.4527 7.26478 34.8642 7.67636L50.3453 23.1574L34.8642 38.6385C34.659 38.8437 34.3895 38.9469 34.12 38.9469Z" fill="#133E87"/>
<path d="M20.4369 45.2625C20.3621 45.2625 20.2853 45.254 20.2095 45.2383C19.6421 45.114 19.2832 44.553 19.4074 43.9846L28.8811 0.826672C29.0053 0.259304 29.5695 -0.0996434 30.1347 0.0245671C30.7021 0.148778 31.0611 0.70983 30.9369 1.27825L21.4632 44.4361C21.3558 44.9277 20.92 45.2625 20.4369 45.2625Z" fill="#133E87"/>
</svg>
