<svg width="60" height="60" viewBox="0 0 60 60" fill="none" xmlns="http://www.w3.org/2000/svg">
<g clip-path="url(#clip0_153_1093)">
<path fill-rule="evenodd" clip-rule="evenodd" d="M1.22763 55.4064H7.36093C7.1347 55.3114 6.93441 55.1009 6.79092 54.8074C6.64743 54.5139 6.56871 54.1536 6.56687 53.782V13.9232C6.56816 13.4773 6.68061 13.0504 6.87964 12.7358C7.07866 12.4213 7.34805 12.2447 7.62887 12.2447H14.3516L13.9181 15.0138H8.46191V53.3025H51.2635V15.0061H45.9047L45.4176 12.2369H51.9747C52.2525 12.2451 52.5172 12.4265 52.7114 12.7421C52.9056 13.0577 53.0137 13.482 53.0124 13.9232V53.7743C53.0122 54.1465 52.9341 54.5081 52.7903 54.8022C52.6466 55.0962 52.4453 55.306 52.2183 55.3987H58.6341C60.271 55.3987 60.271 59.8618 58.6341 59.8618H1.22763C-0.409211 59.8618 -0.409211 55.4064 1.22763 55.4064ZM28.1138 3.42302e-05H32.2936C32.4422 3.42302e-05 32.5847 0.0937527 32.6897 0.260573C32.7948 0.427393 32.8538 0.653649 32.8538 0.889568V3.09407H39.4597C39.5708 2.58379 39.7541 2.12074 39.9955 1.74043C40.2056 1.40505 40.4553 1.13891 40.7304 0.957308C41.0054 0.775702 41.3004 0.682211 41.5983 0.682211C41.8962 0.682211 42.1911 0.775702 42.4662 0.957308C42.7412 1.13891 42.991 1.40505 43.201 1.74043C43.4122 2.07396 43.5799 2.47049 43.6942 2.90722C43.8086 3.34396 43.8675 3.81228 43.8675 4.28527C43.8675 4.75826 43.8086 5.22658 43.6942 5.66331C43.5799 6.10005 43.4122 6.49658 43.201 6.83011C42.991 7.16548 42.7412 7.43162 42.4662 7.61323C42.1911 7.79483 41.8962 7.88832 41.5983 7.88832C41.3004 7.88832 41.0054 7.79483 40.7304 7.61323C40.4553 7.43162 40.2056 7.16548 39.9955 6.83011C39.7496 6.43136 39.5661 5.94651 39.4597 5.41459H36.0496C37.151 6.42524 38.1469 7.70125 39.0017 9.19704C40.7073 12.1886 41.8338 15.8974 42.2462 19.8792H43.1621C43.2513 19.8761 43.3401 19.9014 43.4231 19.9538C43.5061 20.0061 43.5816 20.0844 43.6452 20.1839C43.7088 20.2835 43.7592 20.4023 43.7933 20.5333C43.8275 20.6643 43.8447 20.8048 43.8441 20.9466V25.812C43.8447 25.9518 43.8279 26.0904 43.7947 26.2199C43.7614 26.3494 43.7124 26.4671 43.6503 26.5663C43.5883 26.6655 43.5145 26.7443 43.4332 26.798C43.3519 26.8518 43.2647 26.8794 43.1767 26.8794H40.1319C40.0437 26.8794 39.9562 26.8518 39.8747 26.7982C39.7931 26.7445 39.719 26.6659 39.6566 26.5668C39.5941 26.4677 39.5446 26.35 39.5108 26.2205C39.4771 26.091 39.4597 25.9522 39.4597 25.812V20.9466C39.4597 20.6635 39.5305 20.392 39.6566 20.1918C39.7826 19.9916 39.9536 19.8792 40.1319 19.8792H40.8334C40.4318 16.4615 39.4401 13.2882 37.969 10.7131C36.5976 8.30799 34.8234 6.57219 32.8538 5.70852V7.60362C32.8551 7.72173 32.8416 7.83906 32.814 7.94878C32.7864 8.05849 32.7454 8.15839 32.6932 8.24264C32.6411 8.32688 32.5789 8.39379 32.5103 8.43946C32.4416 8.48513 32.368 8.50864 32.2936 8.50862H28.1138C28.04 8.50965 27.9669 8.48735 27.8986 8.44301C27.8304 8.39867 27.7684 8.33319 27.7162 8.25038C27.664 8.16758 27.6228 8.0691 27.5949 7.96071C27.567 7.85232 27.5529 7.73619 27.5536 7.61909V5.70852C25.5321 6.59889 23.7197 8.41161 22.341 10.922C20.938 13.4658 19.9879 16.5578 19.5886 19.8792H20.2754C20.3637 19.8792 20.4512 19.9068 20.5327 19.9604C20.6143 20.0141 20.6884 20.0927 20.7508 20.1918C20.8132 20.291 20.8628 20.4086 20.8966 20.5381C20.9303 20.6676 20.9477 20.8064 20.9477 20.9466V25.812C20.9477 25.9522 20.9303 26.091 20.8966 26.2205C20.8628 26.35 20.8132 26.4677 20.7508 26.5668C20.6884 26.6659 20.6143 26.7445 20.5327 26.7982C20.4512 26.8518 20.3637 26.8794 20.2754 26.8794H17.2453C17.1562 26.8815 17.0678 26.8554 16.9851 26.8027C16.9024 26.7499 16.8271 26.6716 16.7637 26.5723C16.7002 26.473 16.6498 26.3546 16.6154 26.2241C16.581 26.0936 16.5633 25.9535 16.5633 25.812V20.9466C16.5633 20.8051 16.581 20.6651 16.6154 20.5345C16.6498 20.404 16.7002 20.2856 16.7637 20.1863C16.8271 20.087 16.9024 20.0087 16.9851 19.956C17.0678 19.9032 17.1562 19.8771 17.2453 19.8792H18.1758C18.5917 16.0139 19.6743 12.4072 21.3033 9.46004C22.1758 7.85619 23.2076 6.48967 24.3578 5.41459H20.4167C20.3055 5.92258 20.1222 6.3831 19.8809 6.76049C19.671 7.09648 19.4214 7.36312 19.1463 7.54501C18.8712 7.7269 18.5761 7.82043 18.2781 7.8202C17.6753 7.81677 17.0976 7.43599 16.6705 6.76049C16.4593 6.42696 16.2917 6.03043 16.1773 5.5937C16.0629 5.15696 16.004 4.68864 16.004 4.21565C16.004 3.74266 16.0629 3.27434 16.1773 2.83761C16.2917 2.40087 16.4593 2.00434 16.6705 1.67081C16.8805 1.33544 17.1303 1.0693 17.4053 0.887692C17.6804 0.706086 17.9753 0.612595 18.2732 0.612595C18.5711 0.612595 18.8661 0.706086 19.1411 0.887692C19.4162 1.0693 19.6659 1.33544 19.876 1.67081C20.1249 2.07024 20.3103 2.55815 20.4167 3.09407H27.5536V0.889568C27.5529 0.772466 27.567 0.656331 27.5949 0.547941C27.6228 0.439552 27.664 0.34108 27.7162 0.258273C27.7684 0.175466 27.8304 0.109982 27.8986 0.0656443C27.9669 0.0213064 28.04 -0.000997571 28.1138 3.42302e-05ZM36.3711 31.5127L34.2032 40.3153L26.209 40.1528L23.9973 31.5127C25.8972 26.0982 27.8312 19.5311 28.825 13.7221L29.8773 13.9077L29.8383 29.4707C29.6068 29.6041 29.4129 29.8646 29.2916 30.205C29.1704 30.5455 29.1298 30.9436 29.1771 31.3274C29.2245 31.7112 29.3567 32.0555 29.5499 32.2982C29.743 32.5409 29.9845 32.6659 30.2306 32.6508C30.4768 32.6356 30.7114 32.4813 30.8922 32.2156C31.073 31.9499 31.188 31.5904 31.2165 31.2019C31.245 30.8134 31.1851 30.4215 31.0476 30.097C30.9101 29.7724 30.7041 29.5366 30.4668 29.432L30.496 14.0315L31.7041 13.9232C32.5859 19.7322 34.5004 26.2993 36.3711 31.4895V31.5127ZM34.0133 44.09H26.248V41.6302H34.0133V44.09ZM28.1917 56.1412H31.6652C32.4495 56.1412 32.4495 58.5623 31.6652 58.5623H28.1917C27.4074 58.5623 27.4025 56.1412 28.1917 56.1412Z" fill="#133E87"/>
</g>
<defs>
<clipPath id="clip0_153_1093">
<rect width="59.8618" height="59.8618" fill="white"/>
</clipPath>
</defs>
</svg>
