<svg width="64" height="64" viewBox="0 0 64 64" fill="none" xmlns="http://www.w3.org/2000/svg">
<path d="M27.0733 26.465C28.8807 30.5107 30.708 34.5474 32.5389 38.5841V44.975C32.0916 44.7215 31.8398 44.1727 31.3255 43.0626C29.2664 38.6148 27.2037 34.1689 25.0396 29.4984C23.9259 31.5756 22.899 33.4717 21.903 35.3822C21.7889 35.6032 21.8342 35.9129 21.8324 36.1809C21.8288 38.8014 21.8306 41.4219 21.8306 44.0424V45.0855H19V19.0689H21.7817V29.3046C22.0533 28.8555 22.1909 28.6472 22.3087 28.4281C23.8752 25.5142 25.4489 22.6022 26.9973 19.6774C27.2526 19.1939 27.5478 18.9675 28.1165 19.0037C28.8916 19.0545 29.6721 19.0164 30.6265 19.0164C30.3349 19.5923 30.1176 20.0378 29.884 20.4761C28.9749 22.173 28.0477 23.8608 27.1603 25.5704C27.0299 25.8203 26.9647 26.2223 27.0733 26.465Z" fill="#232323"/>
<path d="M43.9007 26.74C41.168 32.6999 38.4153 38.6526 35.6318 44.589C35.5793 44.7031 35.467 44.8154 35.333 44.9077V38.2488C37.0516 34.4421 38.763 30.6318 40.5015 26.8342C40.7533 26.2836 40.7406 25.858 40.4436 25.3256C39.319 23.3082 38.2451 21.2618 37.048 19.0325C38.1907 19.0325 39.1596 19.0162 40.1285 19.0524C40.2788 19.0578 40.4653 19.2824 40.5559 19.4508C41.6877 21.5407 42.8214 23.6305 43.908 25.744C44.0456 26.0102 44.0293 26.4593 43.9007 26.74Z" fill="#232323"/>
<path d="M33.8662 28.3173C34.8524 28.3173 35.6518 27.5179 35.6518 26.5317C35.6518 25.5455 34.8524 24.7461 33.8662 24.7461C32.88 24.7461 32.0806 25.5455 32.0806 26.5317C32.0806 27.5179 32.88 28.3173 33.8662 28.3173Z" fill="#232323"/>
<circle cx="32" cy="32" r="30.5" stroke="#232323" stroke-width="3"/>
</svg>
