<svg width="123" height="64" viewBox="0 0 123 64" fill="none" xmlns="http://www.w3.org/2000/svg">
<g clip-path="url(#clip0_251_3727)">
<path fill-rule="evenodd" clip-rule="evenodd" d="M2.29 59.12H13.66C12.82 58.91 12.19 58.13 12.19 57.22V1.96C12.2 0.89 13.08 0 14.16 0H96.34C97.41 0 98.3 0.89 98.3 1.96V18.62L95.22 19.56V10.08H15.55V56.66H95.22V44.64L96.24 44.47C96.93 44.35 97.58 44.13 98.17 43.82L98.31 43.79V57.2C98.31 58.11 97.68 58.88 96.84 59.1H108.73C109.99 59.1 111.02 60.13 111.02 61.39C111.02 62.66 109.99 63.68 108.73 63.68H2.29C1.03 63.7 0 62.67 0 61.4C0 60.15 1.03 59.12 2.29 59.12ZM78.99 35.1C80.04 36.23 81.21 38.54 80.98 40.54L95.18 38.13C94.65 34.11 93.47 30.42 91.19 27.29C86.59 30.41 83.95 32.35 78.99 35.1ZM56.02 46.68C62.66 44.71 69.76 51.76 75.41 46.29C76.91 44.84 77.93 42.5 77.8 40.31C77.74 39.43 77.51 38.58 77.04 37.83C76.83 37.5 76.58 37.19 76.29 36.88C72.67 33.19 67.06 34.65 63.37 37.48C59.98 40.09 57.55 43.97 56.02 46.68ZM93.08 26.93C95.22 30.32 96.57 33.84 97.06 37.51L120.13 25C122.04 24.14 123.26 23.26 122.77 20.76C122.39 19.94 121.87 19.39 121.21 19.11C120.56 18.83 119.78 18.83 118.86 19.11L93.08 26.93ZM22.38 20.68H88.63C89.02 20.68 89.37 20.82 89.64 21.06C88.85 21.26 88.09 21.6 87.39 22.12L87.25 22.23C84.08 24.38 86.27 22.88 85.44 23.45L84.94 23.8H23.94V39.93H52.63C51.9 41.02 51.26 42.08 50.71 43.03H22.38C21.52 43.03 20.83 42.33 20.83 41.48V22.23C20.83 21.38 21.52 20.68 22.38 20.68ZM79.98 17.07C79.12 17.07 78.43 16.38 78.43 15.52C78.43 14.66 79.13 13.97 79.98 13.97H86.23C87.09 13.97 87.78 14.66 87.78 15.52C87.78 16.38 87.09 17.07 86.23 17.07H79.98ZM64.54 17.07C63.68 17.07 62.99 16.38 62.99 15.52C62.99 14.66 63.69 13.97 64.54 13.97H70.79C71.65 13.97 72.34 14.66 72.34 15.52C72.34 16.38 71.64 17.07 70.79 17.07H64.54ZM49.09 17.07C48.23 17.07 47.54 16.38 47.54 15.52C47.54 14.66 48.23 13.97 49.09 13.97H55.34C56.2 13.97 56.89 14.66 56.89 15.52C56.89 16.38 56.2 17.07 55.34 17.07H49.09ZM25.1 4.71C25.96 4.71 26.66 5.41 26.66 6.27C26.66 7.13 25.96 7.83 25.1 7.83C24.24 7.83 23.54 7.13 23.54 6.27C23.54 5.41 24.25 4.71 25.1 4.71ZM30.38 4.71C31.24 4.71 31.93 5.41 31.93 6.27C31.93 7.13 31.23 7.83 30.38 7.83C29.53 7.83 28.82 7.13 28.82 6.27C28.82 5.41 29.52 4.71 30.38 4.71ZM19.83 4.71C20.69 4.71 21.39 5.41 21.39 6.27C21.39 7.13 20.69 7.83 19.83 7.83C18.97 7.83 18.27 7.13 18.27 6.27C18.27 5.41 18.97 4.71 19.83 4.71ZM52.28 59.98H58.73C59.34 59.98 59.83 60.48 59.83 61.08C59.83 61.69 59.33 62.18 58.73 62.18H52.28C51.67 62.18 51.18 61.68 51.18 61.08C51.18 60.46 51.67 59.98 52.28 59.98Z" fill="#133E87"/>
</g>
<defs>
<clipPath id="clip0_251_3727">
<rect width="122.88" height="63.7" fill="white"/>
</clipPath>
</defs>
</svg>
